<?xml version="1.0" encoding="UTF-8" standalone="no"?>
<!-- Created with Inkscape (http://www.inkscape.org/) -->

<svg
   xmlns:dc="http://purl.org/dc/elements/1.1/"
   xmlns:cc="http://creativecommons.org/ns#"
   xmlns:rdf="http://www.w3.org/1999/02/22-rdf-syntax-ns#"
   xmlns:svg="http://www.w3.org/2000/svg"
   xmlns="http://www.w3.org/2000/svg"
   xmlns:xlink="http://www.w3.org/1999/xlink"
   xmlns:sodipodi="http://sodipodi.sourceforge.net/DTD/sodipodi-0.dtd"
   xmlns:inkscape="http://www.inkscape.org/namespaces/inkscape"
   width="50.794395mm"
   height="44.008659mm"
   viewBox="0 0 179.98014 155.93619"
   id="svg2"
   version="1.1"
   inkscape:version="0.91 r13725"
   sodipodi:docname="characters.svg"
   inkscape:export-filename="/Users/jacob/git/csci4849-toaster/public/img/toast-blink.png"
   inkscape:export-xdpi="500.05515"
   inkscape:export-ydpi="500.05515">
  <defs
     id="defs4">
    <linearGradient
       inkscape:collect="always"
       id="linearGradient4159">
      <stop
         style="stop-color:#ffffff;stop-opacity:1;"
         offset="0"
         id="stop4161" />
      <stop
         style="stop-color:#ffffff;stop-opacity:0;"
         offset="1"
         id="stop4163" />
    </linearGradient>
    <radialGradient
       inkscape:collect="always"
       xlink:href="#linearGradient4159"
       id="radialGradient4165"
       cx="312.05948"
       cy="493.83795"
       fx="312.05948"
       fy="493.83795"
       r="6.4883428"
       gradientTransform="matrix(1,0,0,3.230511,0,-1104.1264)"
       gradientUnits="userSpaceOnUse" />
    <filter
       inkscape:collect="always"
       style="color-interpolation-filters:sRGB"
       id="filter4187"
       x="-0.17611857"
       width="1.3522371"
       y="-0.045249309"
       height="1.0904986">
      <feGaussianBlur
         inkscape:collect="always"
         stdDeviation="0.95226474"
         id="feGaussianBlur4189" />
    </filter>
    <radialGradient
       inkscape:collect="always"
       xlink:href="#linearGradient4159"
       id="radialGradient4298"
       gradientUnits="userSpaceOnUse"
       gradientTransform="matrix(1,0,0,3.230511,0,-1104.1264)"
       cx="312.05948"
       cy="493.83795"
       fx="312.05948"
       fy="493.83795"
       r="6.4883428" />
  </defs>
  <sodipodi:namedview
     id="base"
     pagecolor="#ffffff"
     bordercolor="#666666"
     borderopacity="1.0"
     inkscape:pageopacity="0.0"
     inkscape:pageshadow="2"
     inkscape:zoom="1.979899"
     inkscape:cx="71.054847"
     inkscape:cy="96.838396"
     inkscape:document-units="px"
     inkscape:current-layer="g4244"
     showgrid="false"
     fit-margin-top="0"
     fit-margin-left="0"
     fit-margin-right="0"
     fit-margin-bottom="0"
     inkscape:window-width="1280"
     inkscape:window-height="708"
     inkscape:window-x="0"
     inkscape:window-y="1"
     inkscape:window-maximized="1" />
  <metadata
     id="metadata7">
    <rdf:RDF>
      <cc:Work
         rdf:about="">
        <dc:format>image/svg+xml</dc:format>
        <dc:type
           rdf:resource="http://purl.org/dc/dcmitype/StillImage" />
        <dc:title></dc:title>
      </cc:Work>
    </rdf:RDF>
  </metadata>
  <g
     inkscape:label="Toaster"
     inkscape:groupmode="layer"
     id="layer1"
     transform="translate(-275.04409,-409.50463)"
     style="display:none">
    <path
       style="opacity:1;fill:#a3a2d7;fill-opacity:1;fill-rule:evenodd;stroke:#6d6bbf;stroke-width:7;stroke-linecap:butt;stroke-linejoin:miter;stroke-miterlimit:4;stroke-dasharray:none;stroke-opacity:1"
       d="m 317.44141,463.19141 c 0,0 -9.34572,2.27189 -11.8711,3.78711 -2.52539,1.51523 -6.56485,5.55568 -8.08008,11.86914 -1.04161,4.34009 -2.31315,14.19058 -3.25781,24.83398 -1.22083,-1.86948 -2.55903,-3.87801 -3.83203,-5.64062 -2.25705,-3.12516 -5.47046,-4.45947 -7.99609,-4.4961 -1.14802,-0.0166 -2.15302,0.23352 -2.86328,0.70703 -2.27284,1.51523 -0.7574,3.53597 5.80859,11.61719 3.7297,4.59041 6.25607,7.59496 8.00781,9.64844 -0.053,0.90901 -0.11552,1.8339 -0.16015,2.72656 -0.66253,13.25034 -1.0682,25.3267 -1.29192,26.9319 -0.0208,-0.004 0.0282,2.86654 0.0282,3.87669 0,0.0221 0.005,0.0494 0.006,0.0723 l 0.0621,0.69928 c 0.0681,0.51763 0.86669,2.10484 2.96311,3.26952 l 4.54493,2.52539 c 0,0 0.50588,6.06192 5.55664,6.31445 5.05076,0.25254 6.81836,-5.55664 6.81836,-5.55664 0,0 14.90042,1.76895 22.47656,2.02149 3.73217,0.1244 10.79465,0.30933 18.33789,0.43554 0.72297,0.0236 1.4075,0.0512 2.17969,0.0684 2.73479,0.0608 6.05724,0.0774 9.60547,0.0645 0.13798,5.9e-4 0.26116,-5.1e-4 0.39843,0 0.009,-4e-5 0.0185,3e-5 0.0274,0 3.54816,0.0129 6.86876,-0.004 9.60351,-0.0645 0.77181,-0.0172 1.45704,-0.0448 2.17969,-0.0684 7.54402,-0.12621 14.60733,-0.31112 18.33984,-0.43554 7.57614,-0.25254 22.47657,-2.02149 22.47657,-2.02149 0,0 1.76759,5.80918 6.81835,5.55664 5.05077,-0.25253 5.55469,-6.31445 5.55469,-6.31445 l 4.54688,-2.52539 c 2.27284,-1.26269 3.02929,-3.03087 3.02929,-4.04102 0,-1.01015 -8.5e-4,-3.86472 -8.5e-4,-3.86472 -0.25475,-1.59323 -0.66234,-13.68447 -1.32532,-26.94387 -0.0315,-0.62986 -0.0776,-1.2854 -0.11328,-1.92383 1.53977,-1.78674 4.13407,-4.83252 8.69922,-10.45117 6.56599,-8.08122 8.08143,-10.10196 5.80859,-11.61719 -0.71026,-0.47351 -1.71526,-0.72368 -2.86328,-0.70703 -2.52563,0.0366 -5.73904,1.37094 -7.99609,4.4961 -1.49886,2.07534 -3.12465,4.53242 -4.48242,6.63281 -0.95195,-11.02206 -2.27168,-21.35105 -3.34571,-25.82617 -1.51523,-6.31346 -5.55468,-10.35391 -8.08007,-11.86914 -2.52538,-1.51522 -11.86914,-3.78711 -11.86915,-3.78711 0,0 0.75584,3.53574 -6.82031,3.2832 -13.29311,-0.42629 -27.21964,-0.46459 -40.40625,-0.36523 -13.34363,-0.36316 -27.60446,0.0219 -40.40429,0.36523 -7.57615,0.25254 -6.81836,-3.2832 -6.81836,-3.2832 z"
       id="path4222"
       inkscape:connector-curvature="0"
       sodipodi:nodetypes="csscsssscscsccccscscscccscscsccscscsssscsscccccc" />
    <path
       style="opacity:1;fill:#a3a2d7;fill-opacity:1;fill-rule:evenodd;stroke:none;stroke-width:1px;stroke-linecap:butt;stroke-linejoin:miter;stroke-opacity:1"
       d="m 317.44141,463.19141 c 0,0 -9.34572,2.27189 -11.8711,3.78711 -2.52539,1.51523 -6.56485,5.55568 -8.08008,11.86914 -1.51522,6.31345 -3.53535,24.24419 -4.29296,39.39648 -0.75762,15.15228 -1.26368,31.0625 -1.26368,31.0625 l 40.91211,5.05078 1.04297,0.0176 -0.0332,0.99219 30.80859,-0.4961 30.81055,0.4961 -0.0332,-0.99219 1.04297,-0.0176 40.9121,-5.05078 c 0,0 -0.50605,-15.91022 -1.26367,-31.0625 -0.75761,-15.15229 -2.77775,-33.08303 -4.29297,-39.39648 -1.51523,-6.31346 -5.55468,-10.35391 -8.08007,-11.86914 -2.52538,-1.51522 -11.86915,-3.78711 -11.86915,-3.78711 0,0 0.75584,3.53574 -6.82031,3.2832 -13.29311,-0.42629 -27.21964,-0.46458 -40.40625,-0.36523 -13.34363,-0.36315 -27.60446,0.0219 -40.40429,0.36523 -7.57615,0.25254 -6.81836,-3.2832 -6.81836,-3.2832 z"
       id="path4147"
       inkscape:connector-curvature="0"
       sodipodi:nodetypes="cssscccccccccsssccccc" />
    <path
       style="fill:#cccccc;fill-opacity:1;fill-rule:evenodd;stroke:none;stroke-width:1px;stroke-linecap:butt;stroke-linejoin:miter;stroke-opacity:1"
       d="m 291.68164,546.78125 c 0,0 0.25195,1.26133 0.25195,2.27148 0,1.01015 0.75841,2.77833 3.03125,4.04102 l 4.54493,2.52539 c 0,0 0.50588,6.06192 5.55664,6.31445 5.05076,0.25254 6.81836,-5.55664 6.81836,-5.55664 0,0 14.90042,1.76895 22.47656,2.02149 3.73217,0.1244 10.79465,0.30933 18.33789,0.43554 0.72297,0.0236 1.4075,0.0512 2.17969,0.0684 2.73479,0.0608 6.05724,0.0774 9.60547,0.0645 0.13798,5.9e-4 0.26116,-5.1e-4 0.39843,0 0.009,-4e-5 0.0185,3e-5 0.0274,0 3.54816,0.0129 6.86876,-0.004 9.60351,-0.0645 0.77181,-0.0172 1.45704,-0.0448 2.17969,-0.0684 7.54402,-0.12621 14.60733,-0.31112 18.33984,-0.43554 7.57614,-0.25254 22.47657,-2.02149 22.47657,-2.02149 0,0 1.76759,5.80918 6.81835,5.55664 5.05077,-0.25253 5.55469,-6.31445 5.55469,-6.31445 l 4.54688,-2.52539 c 2.27284,-1.26269 3.02929,-3.03087 3.02929,-4.04102 0,-1.01015 0.25391,-2.27148 0.25391,-2.27148 0,0 -21.96523,3.81765 -51.00391,4.95313 -3.82076,-0.14404 -8.76927,-0.14485 -15.47851,0.0977 -2.19434,0.0793 -4.36717,0.12498 -6.5332,0.16211 -2.16614,-0.0371 -4.34072,-0.0828 -6.53516,-0.16211 -6.70987,-0.24252 -11.65763,-0.24174 -15.47852,-0.0977 -29.03868,-1.13548 -51.00195,-4.95313 -51.00195,-4.95313 z"
       id="path4152"
       inkscape:connector-curvature="0" />
    <path
       style="fill:url(#radialGradient4298);fill-opacity:1;fill-rule:evenodd;stroke:none;stroke-width:1px;stroke-linecap:butt;stroke-linejoin:miter;stroke-opacity:1;filter:url(#filter4187)"
       d="m 315.42013,471.27195 c 0,0 -4.54568,1.51523 -5.55584,5.80838 -1.01015,4.29315 -4.04061,43.18402 -4.04061,43.18402 l 6.31346,-7.07107 c 0,0 0,-15.9099 1.26269,-21.97081 1.26269,-6.06092 1.76776,-13.8896 4.04061,-16.16245 2.27284,-2.27284 1.01015,-5.3033 1.01015,-5.3033 z"
       id="path4157"
       inkscape:connector-curvature="0" />
    <path
       style="fill:#cccccc;fill-opacity:1;fill-rule:evenodd;stroke:#6d6bbf;stroke-width:3;stroke-linecap:butt;stroke-linejoin:miter;stroke-miterlimit:4;stroke-dasharray:none;stroke-opacity:1"
       d="m 327.03689,503.3443 c 0,0 -1.51523,-16.16244 13.88959,-16.41498 15.40483,-0.25254 13.38453,15.15229 13.38453,15.15229 0,0 -6.06092,-1.76777 -11.8693,-1.51523 -5.80837,0.25253 -15.40482,2.77792 -15.40482,2.77792 z"
       id="path4191"
       inkscape:connector-curvature="0" />
    <path
       inkscape:connector-curvature="0"
       id="path4193"
       d="m 400.31924,503.3443 c 0,0 1.51523,-16.16244 -13.88959,-16.41498 -15.40483,-0.25254 -13.38453,15.15229 -13.38453,15.15229 0,0 6.06092,-1.76777 11.8693,-1.51523 5.80837,0.25253 15.40482,2.77792 15.40482,2.77792 z"
       style="fill:#cccccc;fill-opacity:1;fill-rule:evenodd;stroke:#6d6bbf;stroke-width:3;stroke-linecap:butt;stroke-linejoin:miter;stroke-miterlimit:4;stroke-dasharray:none;stroke-opacity:1" />
    <path
       style="fill:#cccccc;fill-opacity:1;fill-rule:evenodd;stroke:#6d6bbf;stroke-width:3;stroke-linecap:butt;stroke-linejoin:miter;stroke-miterlimit:4;stroke-dasharray:none;stroke-opacity:1"
       d="m 354.81609,516.47628 c 0,0 -2.27285,16.66752 7.82868,16.66752 10.10152,0 7.57614,-16.41498 7.57614,-16.41498 0,0 -2.77792,4.79822 -7.3236,5.05076 -4.54569,0.25254 -8.08122,-5.3033 -8.08122,-5.3033 z"
       id="path4197"
       inkscape:connector-curvature="0" />
    <path
       style="fill:#a3a2d7;fill-opacity:1;fill-rule:evenodd;stroke:none;stroke-width:1px;stroke-linecap:butt;stroke-linejoin:miter;stroke-opacity:1"
       d="m 432.34529,509.15267 c 0,0 4.04061,-6.56599 7.32361,-11.11168 3.28299,-4.54568 8.58629,-5.3033 10.85914,-3.78807 2.27284,1.51523 0.75761,3.53554 -5.80838,11.61676 -6.56599,8.08122 -10.35407,12.37437 -10.35407,12.37437 z"
       id="path4199"
       inkscape:connector-curvature="0" />
    <path
       inkscape:connector-curvature="0"
       id="path4201"
       d="m 297.72332,509.15267 c 0,0 -4.04061,-6.56599 -7.32361,-11.11168 -3.28299,-4.54568 -8.58629,-5.3033 -10.85914,-3.78807 -2.27284,1.51523 -0.75761,3.53554 5.80838,11.61676 6.56599,8.08122 10.35407,12.37437 10.35407,12.37437 z"
       style="fill:#a3a2d7;fill-opacity:1;fill-rule:evenodd;stroke:none;stroke-width:1px;stroke-linecap:butt;stroke-linejoin:miter;stroke-opacity:1" />
  </g>
  <g
     id="g4244"
     inkscape:groupmode="layer"
     inkscape:label="Toaster-blink"
     style="display:none"
     transform="translate(-275.04409,-409.50463)">
    <path
       sodipodi:nodetypes="csscsssscscsccccscscscccscscsccscscsssscsscccccc"
       inkscape:connector-curvature="0"
       id="path4246"
       d="m 317.44141,463.19141 c 0,0 -9.34572,2.27189 -11.8711,3.78711 -2.52539,1.51523 -6.56485,5.55568 -8.08008,11.86914 -1.04161,4.34009 -2.31315,14.19058 -3.25781,24.83398 -1.22083,-1.86948 -2.55903,-3.87801 -3.83203,-5.64062 -2.25705,-3.12516 -5.47046,-4.45947 -7.99609,-4.4961 -1.14802,-0.0166 -2.15302,0.23352 -2.86328,0.70703 -2.27284,1.51523 -0.7574,3.53597 5.80859,11.61719 3.7297,4.59041 6.25607,7.59496 8.00781,9.64844 -0.053,0.90901 -0.11552,1.8339 -0.16015,2.72656 -0.66253,13.25034 -1.0682,25.3267 -1.29192,26.9319 -0.0208,-0.004 0.0282,2.86654 0.0282,3.87669 0,0.0221 0.005,0.0494 0.006,0.0723 l 0.0621,0.69928 c 0.0681,0.51763 0.86669,2.10484 2.96311,3.26952 l 4.54493,2.52539 c 0,0 0.50588,6.06192 5.55664,6.31445 5.05076,0.25254 6.81836,-5.55664 6.81836,-5.55664 0,0 14.90042,1.76895 22.47656,2.02149 3.73217,0.1244 10.79465,0.30933 18.33789,0.43554 0.72297,0.0236 1.4075,0.0512 2.17969,0.0684 2.73479,0.0608 6.05724,0.0774 9.60547,0.0645 0.13798,5.9e-4 0.26116,-5.1e-4 0.39843,0 0.009,-4e-5 0.0185,3e-5 0.0274,0 3.54816,0.0129 6.86876,-0.004 9.60351,-0.0645 0.77181,-0.0172 1.45704,-0.0448 2.17969,-0.0684 7.54402,-0.12621 14.60733,-0.31112 18.33984,-0.43554 7.57614,-0.25254 22.47657,-2.02149 22.47657,-2.02149 0,0 1.76759,5.80918 6.81835,5.55664 5.05077,-0.25253 5.55469,-6.31445 5.55469,-6.31445 l 4.54688,-2.52539 c 2.27284,-1.26269 3.02929,-3.03087 3.02929,-4.04102 0,-1.01015 -8.5e-4,-3.86472 -8.5e-4,-3.86472 -0.25475,-1.59323 -0.66234,-13.68447 -1.32532,-26.94387 -0.0315,-0.62986 -0.0776,-1.2854 -0.11328,-1.92383 1.53977,-1.78674 4.13407,-4.83252 8.69922,-10.45117 6.56599,-8.08122 8.08143,-10.10196 5.80859,-11.61719 -0.71026,-0.47351 -1.71526,-0.72368 -2.86328,-0.70703 -2.52563,0.0366 -5.73904,1.37094 -7.99609,4.4961 -1.49886,2.07534 -3.12465,4.53242 -4.48242,6.63281 -0.95195,-11.02206 -2.27168,-21.35105 -3.34571,-25.82617 -1.51523,-6.31346 -5.55468,-10.35391 -8.08007,-11.86914 -2.52538,-1.51522 -11.86914,-3.78711 -11.86915,-3.78711 0,0 0.75584,3.53574 -6.82031,3.2832 -13.29311,-0.42629 -27.21964,-0.46459 -40.40625,-0.36523 -13.34363,-0.36316 -27.60446,0.0219 -40.40429,0.36523 -7.57615,0.25254 -6.81836,-3.2832 -6.81836,-3.2832 z"
       style="opacity:1;fill:#a3a2d7;fill-opacity:1;fill-rule:evenodd;stroke:#6d6bbf;stroke-width:7;stroke-linecap:butt;stroke-linejoin:miter;stroke-miterlimit:4;stroke-dasharray:none;stroke-opacity:1" />
    <path
       sodipodi:nodetypes="cssscccccccccsssccccc"
       inkscape:connector-curvature="0"
       id="path4248"
       d="m 317.44141,463.19141 c 0,0 -9.34572,2.27189 -11.8711,3.78711 -2.52539,1.51523 -6.56485,5.55568 -8.08008,11.86914 -1.51522,6.31345 -3.53535,24.24419 -4.29296,39.39648 -0.75762,15.15228 -1.26368,31.0625 -1.26368,31.0625 l 40.91211,5.05078 1.04297,0.0176 -0.0332,0.99219 30.80859,-0.4961 30.81055,0.4961 -0.0332,-0.99219 1.04297,-0.0176 40.9121,-5.05078 c 0,0 -0.50605,-15.91022 -1.26367,-31.0625 -0.75761,-15.15229 -2.77775,-33.08303 -4.29297,-39.39648 -1.51523,-6.31346 -5.55468,-10.35391 -8.08007,-11.86914 -2.52538,-1.51522 -11.86915,-3.78711 -11.86915,-3.78711 0,0 0.75584,3.53574 -6.82031,3.2832 -13.29311,-0.42629 -27.21964,-0.46458 -40.40625,-0.36523 -13.34363,-0.36315 -27.60446,0.0219 -40.40429,0.36523 -7.57615,0.25254 -6.81836,-3.2832 -6.81836,-3.2832 z"
       style="opacity:1;fill:#a3a2d7;fill-opacity:1;fill-rule:evenodd;stroke:none;stroke-width:1px;stroke-linecap:butt;stroke-linejoin:miter;stroke-opacity:1" />
    <path
       id="path4250"
       d="m 291.68164,546.78125 c 0,0 0.25195,1.26133 0.25195,2.27148 0,1.01015 0.75841,2.77833 3.03125,4.04102 l 4.54493,2.52539 c 0,0 0.50588,6.06192 5.55664,6.31445 5.05076,0.25254 6.81836,-5.55664 6.81836,-5.55664 0,0 14.90042,1.76895 22.47656,2.02149 3.73217,0.1244 10.79465,0.30933 18.33789,0.43554 0.72297,0.0236 1.4075,0.0512 2.17969,0.0684 2.73479,0.0608 6.05724,0.0774 9.60547,0.0645 0.13798,5.9e-4 0.26116,-5.1e-4 0.39843,0 0.009,-4e-5 0.0185,3e-5 0.0274,0 3.54816,0.0129 6.86876,-0.004 9.60351,-0.0645 0.77181,-0.0172 1.45704,-0.0448 2.17969,-0.0684 7.54402,-0.12621 14.60733,-0.31112 18.33984,-0.43554 7.57614,-0.25254 22.47657,-2.02149 22.47657,-2.02149 0,0 1.76759,5.80918 6.81835,5.55664 5.05077,-0.25253 5.55469,-6.31445 5.55469,-6.31445 l 4.54688,-2.52539 c 2.27284,-1.26269 3.02929,-3.03087 3.02929,-4.04102 0,-1.01015 0.25391,-2.27148 0.25391,-2.27148 0,0 -21.96523,3.81765 -51.00391,4.95313 -3.82076,-0.14404 -8.76927,-0.14485 -15.47851,0.0977 -2.19434,0.0793 -4.36717,0.12498 -6.5332,0.16211 -2.16614,-0.0371 -4.34072,-0.0828 -6.53516,-0.16211 -6.70987,-0.24252 -11.65763,-0.24174 -15.47852,-0.0977 -29.03868,-1.13548 -51.00195,-4.95313 -51.00195,-4.95313 z"
       style="fill:#cccccc;fill-opacity:1;fill-rule:evenodd;stroke:none;stroke-width:1px;stroke-linecap:butt;stroke-linejoin:miter;stroke-opacity:1"
       inkscape:connector-curvature="0" />
    <path
       inkscape:connector-curvature="0"
       id="path4252"
       d="m 315.42013,471.27195 c 0,0 -4.54568,1.51523 -5.55584,5.80838 -1.01015,4.29315 -4.04061,43.18402 -4.04061,43.18402 l 6.31346,-7.07107 c 0,0 0,-15.9099 1.26269,-21.97081 1.26269,-6.06092 1.76776,-13.8896 4.04061,-16.16245 2.27284,-2.27284 1.01015,-5.3033 1.01015,-5.3033 z"
       style="fill:url(#radialGradient4165);fill-opacity:1;fill-rule:evenodd;stroke:none;stroke-width:1px;stroke-linecap:butt;stroke-linejoin:miter;stroke-opacity:1;filter:url(#filter4187)" />
    <path
       inkscape:connector-curvature="0"
       id="path4258"
       d="m 354.81609,516.47628 c 0,0 -2.27285,16.66752 7.82868,16.66752 10.10152,0 7.57614,-16.41498 7.57614,-16.41498 0,0 -2.77792,4.79822 -7.3236,5.05076 -4.54569,0.25254 -8.08122,-5.3033 -8.08122,-5.3033 z"
       style="fill:#cccccc;fill-opacity:1;fill-rule:evenodd;stroke:#6d6bbf;stroke-width:3;stroke-linecap:butt;stroke-linejoin:miter;stroke-miterlimit:4;stroke-dasharray:none;stroke-opacity:1" />
    <path
       inkscape:connector-curvature="0"
       id="path4260"
       d="m 432.34529,509.15267 c 0,0 4.04061,-6.56599 7.32361,-11.11168 3.28299,-4.54568 8.58629,-5.3033 10.85914,-3.78807 2.27284,1.51523 0.75761,3.53554 -5.80838,11.61676 -6.56599,8.08122 -10.35407,12.37437 -10.35407,12.37437 z"
       style="fill:#a3a2d7;fill-opacity:1;fill-rule:evenodd;stroke:none;stroke-width:1px;stroke-linecap:butt;stroke-linejoin:miter;stroke-opacity:1" />
    <path
       style="fill:#a3a2d7;fill-opacity:1;fill-rule:evenodd;stroke:none;stroke-width:1px;stroke-linecap:butt;stroke-linejoin:miter;stroke-opacity:1"
       d="m 297.72332,509.15267 c 0,0 -4.04061,-6.56599 -7.32361,-11.11168 -3.28299,-4.54568 -8.58629,-5.3033 -10.85914,-3.78807 -2.27284,1.51523 -0.75761,3.53554 5.80838,11.61676 6.56599,8.08122 10.35407,12.37437 10.35407,12.37437 z"
       id="path4262"
       inkscape:connector-curvature="0" />
    <path
       style="fill:none;fill-rule:evenodd;stroke:#6d6bbf;stroke-width:3;stroke-linecap:butt;stroke-linejoin:miter;stroke-miterlimit:4;stroke-dasharray:none;stroke-opacity:1"
       d="m 326.42857,504.32649 c 0,0 5,-9.46429 14.28572,-9.64286 C 350,494.50506 355,502.71935 355,502.71935"
       id="path4264"
       inkscape:connector-curvature="0" />
    <path
       inkscape:connector-curvature="0"
       id="path4266"
       d="m 400.6693,504.32649 c 0,0 -5,-9.46429 -14.28572,-9.64286 -9.28571,-0.17857 -14.28571,8.03572 -14.28571,8.03572"
       style="fill:none;fill-rule:evenodd;stroke:#6d6bbf;stroke-width:3;stroke-linecap:butt;stroke-linejoin:miter;stroke-miterlimit:4;stroke-dasharray:none;stroke-opacity:1" />
  </g>
  <g
     inkscape:groupmode="layer"
     id="layer2"
     inkscape:label="Bread"
     transform="translate(-275.04409,-409.50463)"
     style="display:none">
    <path
       style="fill:#b38355;fill-opacity:1;fill-rule:evenodd;stroke:#6d4722;stroke-width:3.5;stroke-linecap:butt;stroke-linejoin:miter;stroke-miterlimit:4;stroke-dasharray:none;stroke-opacity:1"
       d="m 332.23328,453.75003 c 0,0 -11.16404,-4.68169 -11.16404,-16.566 0,-11.8843 8.64314,-25.9294 43.21566,-25.9294 34.57252,0 42.08243,18.34253 42.49539,25.56927 0.72026,12.60457 -10.44379,17.64639 -10.44379,17.64639 0,0 0.72026,14.04509 1.0804,28.09017 0.36013,14.0451 3.96144,21.60783 -10.80391,22.32809 -14.76535,0.72026 -32.41175,0.36013 -40.69475,1.0804 -8.28299,0.72026 -16.20586,0.36013 -15.12547,-16.56601 1.08038,-16.92612 1.44051,-35.65291 1.44051,-35.65291 z"
       id="path4214"
       inkscape:connector-curvature="0"
       sodipodi:nodetypes="cssscssssc" />
    <path
       inkscape:connector-curvature="0"
       id="path4233"
       d="m 340.57353,457.8339 c 0,0 -0.95544,-10.19142 8.75825,-10.35066 9.7137,-0.15924 8.43978,9.55446 8.43978,9.55446 0,0 -3.82179,-1.11469 -7.48433,-0.95545 -3.66254,0.15924 -9.7137,1.75165 -9.7137,1.75165 z"
       style="fill:#6d4722;fill-opacity:1;fill-rule:evenodd;stroke:none;stroke-width:1.89168596;stroke-linecap:butt;stroke-linejoin:miter;stroke-miterlimit:4;stroke-dasharray:none;stroke-opacity:1" />
    <path
       style="fill:#6d4722;fill-opacity:1;fill-rule:evenodd;stroke:none;stroke-width:1.89168596;stroke-linecap:butt;stroke-linejoin:miter;stroke-miterlimit:4;stroke-dasharray:none;stroke-opacity:1"
       d="m 386.7826,457.8339 c 0,0 0.95544,-10.19142 -8.75825,-10.35066 -9.7137,-0.15924 -8.43978,9.55446 -8.43978,9.55446 0,0 3.82179,-1.11469 7.48433,-0.95545 3.66254,0.15924 9.7137,1.75165 9.7137,1.75165 z"
       id="path4235"
       inkscape:connector-curvature="0" />
    <path
       inkscape:connector-curvature="0"
       id="path4237"
       d="m 358.09004,466.11443 c 0,0 -1.43317,10.5099 4.93647,10.5099 6.36963,0 4.77722,-10.35066 4.77722,-10.35066 0,0 -1.75165,3.02558 -4.61798,3.18482 -2.86634,0.15924 -5.09571,-3.34406 -5.09571,-3.34406 z"
       style="fill:#6d4722;fill-opacity:1;fill-rule:evenodd;stroke:none;stroke-width:1.89168596;stroke-linecap:butt;stroke-linejoin:miter;stroke-miterlimit:4;stroke-dasharray:none;stroke-opacity:1" />
  </g>
  <g
     inkscape:label="Bread-blink"
     id="g4268"
     inkscape:groupmode="layer"
     style="display:none"
     transform="translate(-275.04409,-409.50463)">
    <path
       sodipodi:nodetypes="cssscssssc"
       inkscape:connector-curvature="0"
       id="path4270"
       d="m 332.23328,453.75003 c 0,0 -11.16404,-4.68169 -11.16404,-16.566 0,-11.8843 8.64314,-25.9294 43.21566,-25.9294 34.57252,0 42.08243,18.34253 42.49539,25.56927 0.72026,12.60457 -10.44379,17.64639 -10.44379,17.64639 0,0 0.72026,14.04509 1.0804,28.09017 0.36013,14.0451 3.96144,21.60783 -10.80391,22.32809 -14.76535,0.72026 -32.41175,0.36013 -40.69475,1.0804 -8.28299,0.72026 -16.20586,0.36013 -15.12547,-16.56601 1.08038,-16.92612 1.44051,-35.65291 1.44051,-35.65291 z"
       style="fill:#b38355;fill-opacity:1;fill-rule:evenodd;stroke:#6d4722;stroke-width:3.5;stroke-linecap:butt;stroke-linejoin:miter;stroke-miterlimit:4;stroke-dasharray:none;stroke-opacity:1" />
    <path
       style="fill:#6d4722;fill-opacity:1;fill-rule:evenodd;stroke:none;stroke-width:1.89168596;stroke-linecap:butt;stroke-linejoin:miter;stroke-miterlimit:4;stroke-dasharray:none;stroke-opacity:1"
       d="m 340.57353,457.8339 c 0,0 -0.95544,-7.61205 8.75825,-7.67209 9.7137,-0.06 8.43978,6.87589 8.43978,6.87589 0,0 -3.82139,-3.65992 -7.48433,-3.63402 -8.48397,0.06 -9.7137,4.43022 -9.7137,4.43022 z"
       id="path4272"
       inkscape:connector-curvature="0"
       sodipodi:nodetypes="cscsc" />
    <path
       inkscape:connector-curvature="0"
       id="path4274"
       d="m 386.7826,457.8339 c 0,0 0.95544,-7.61205 -8.75825,-7.67209 -9.7137,-0.06 -8.43978,6.87589 -8.43978,6.87589 0,0 3.82139,-3.65992 7.48433,-3.63402 8.48397,0.06 9.7137,4.43022 9.7137,4.43022 z"
       style="fill:#6d4722;fill-opacity:1;fill-rule:evenodd;stroke:none;stroke-width:1.89168596;stroke-linecap:butt;stroke-linejoin:miter;stroke-miterlimit:4;stroke-dasharray:none;stroke-opacity:1"
       sodipodi:nodetypes="cscsc" />
    <path
       style="fill:#6d4722;fill-opacity:1;fill-rule:evenodd;stroke:none;stroke-width:1.89168596;stroke-linecap:butt;stroke-linejoin:miter;stroke-miterlimit:4;stroke-dasharray:none;stroke-opacity:1"
       d="m 358.09004,466.11443 c 0,0 -1.43317,10.5099 4.93647,10.5099 6.36963,0 4.77722,-10.35066 4.77722,-10.35066 0,0 -1.75165,3.02558 -4.61798,3.18482 -2.86634,0.15924 -5.09571,-3.34406 -5.09571,-3.34406 z"
       id="path4276"
       inkscape:connector-curvature="0" />
  </g>
  <g
     inkscape:label="Toast"
     id="g4278"
     inkscape:groupmode="layer"
     transform="translate(-275.04409,-409.50463)"
     style="display:none">
    <path
       sodipodi:nodetypes="cssscssssc"
       inkscape:connector-curvature="0"
       id="path4280"
       d="m 332.23328,453.75003 c 0,0 -11.16404,-4.68169 -11.16404,-16.566 0,-11.8843 8.64314,-25.9294 43.21566,-25.9294 34.57252,0 42.08243,18.34253 42.49539,25.56927 0.72026,12.60457 -10.44379,17.64639 -10.44379,17.64639 0,0 0.72026,14.04509 1.0804,28.09017 0.36013,14.0451 3.96144,21.60783 -10.80391,22.32809 -14.76535,0.72026 -32.41175,0.36013 -40.69475,1.0804 -8.28299,0.72026 -16.20586,0.36013 -15.12547,-16.56601 1.08038,-16.92612 1.44051,-35.65291 1.44051,-35.65291 z"
       style="fill:#6d4722;fill-opacity:1;fill-rule:evenodd;stroke:#b38355;stroke-width:3.5;stroke-linecap:butt;stroke-linejoin:miter;stroke-miterlimit:4;stroke-dasharray:none;stroke-opacity:1" />
    <path
       style="fill:#b38355;fill-opacity:1;fill-rule:evenodd;stroke:none;stroke-width:1.89168596;stroke-linecap:butt;stroke-linejoin:miter;stroke-miterlimit:4;stroke-dasharray:none;stroke-opacity:1"
       d="m 340.57353,457.8339 c 0,0 -0.95544,-10.19142 8.75825,-10.35066 9.7137,-0.15924 8.43978,9.55446 8.43978,9.55446 0,0 -3.82179,-1.11469 -7.48433,-0.95545 -3.66254,0.15924 -9.7137,1.75165 -9.7137,1.75165 z"
       id="path4282"
       inkscape:connector-curvature="0" />
    <path
       inkscape:connector-curvature="0"
       id="path4284"
       d="m 386.7826,457.8339 c 0,0 0.95544,-10.19142 -8.75825,-10.35066 -9.7137,-0.15924 -8.43978,9.55446 -8.43978,9.55446 0,0 3.82179,-1.11469 7.48433,-0.95545 3.66254,0.15924 9.7137,1.75165 9.7137,1.75165 z"
       style="fill:#b38355;fill-opacity:1;fill-rule:evenodd;stroke:none;stroke-width:1.89168596;stroke-linecap:butt;stroke-linejoin:miter;stroke-miterlimit:4;stroke-dasharray:none;stroke-opacity:1" />
    <path
       style="fill:#b38355;fill-opacity:1;fill-rule:evenodd;stroke:none;stroke-width:1.89168596;stroke-linecap:butt;stroke-linejoin:miter;stroke-miterlimit:4;stroke-dasharray:none;stroke-opacity:1"
       d="m 358.09004,466.11443 c 0,0 -1.43317,10.5099 4.93647,10.5099 6.36963,0 4.77722,-10.35066 4.77722,-10.35066 0,0 -1.75165,3.02558 -4.61798,3.18482 -2.86634,0.15924 -5.09571,-3.34406 -5.09571,-3.34406 z"
       id="path4286"
       inkscape:connector-curvature="0" />
  </g>
  <g
     style="display:inline"
     inkscape:groupmode="layer"
     id="g4288"
     inkscape:label="Toast-blink"
     transform="translate(-275.04409,-409.50463)">
    <path
       style="fill:#6d4722;fill-opacity:1;fill-rule:evenodd;stroke:#b38355;stroke-width:3.5;stroke-linecap:butt;stroke-linejoin:miter;stroke-miterlimit:4;stroke-dasharray:none;stroke-opacity:1"
       d="m 332.23328,453.75003 c 0,0 -11.16404,-4.68169 -11.16404,-16.566 0,-11.8843 8.64314,-25.9294 43.21566,-25.9294 34.57252,0 42.08243,18.34253 42.49539,25.56927 0.72026,12.60457 -10.44379,17.64639 -10.44379,17.64639 0,0 0.72026,14.04509 1.0804,28.09017 0.36013,14.0451 3.96144,21.60783 -10.80391,22.32809 -14.76535,0.72026 -32.41175,0.36013 -40.69475,1.0804 -8.28299,0.72026 -16.20586,0.36013 -15.12547,-16.56601 1.08038,-16.92612 1.44051,-35.65291 1.44051,-35.65291 z"
       id="path4290"
       inkscape:connector-curvature="0"
       sodipodi:nodetypes="cssscssssc" />
    <path
       sodipodi:nodetypes="cscsc"
       inkscape:connector-curvature="0"
       id="path4292"
       d="m 340.57353,457.8339 c 0,0 -0.95544,-7.61205 8.75825,-7.67209 9.7137,-0.06 8.43978,6.87589 8.43978,6.87589 0,0 -3.82139,-3.65992 -7.48433,-3.63402 -8.48397,0.06 -9.7137,4.43022 -9.7137,4.43022 z"
       style="fill:#b38355;fill-opacity:1;fill-rule:evenodd;stroke:none;stroke-width:1.89168596;stroke-linecap:butt;stroke-linejoin:miter;stroke-miterlimit:4;stroke-dasharray:none;stroke-opacity:1" />
    <path
       sodipodi:nodetypes="cscsc"
       style="fill:#b38355;fill-opacity:1;fill-rule:evenodd;stroke:none;stroke-width:1.89168596;stroke-linecap:butt;stroke-linejoin:miter;stroke-miterlimit:4;stroke-dasharray:none;stroke-opacity:1"
       d="m 386.7826,457.8339 c 0,0 0.95544,-7.61205 -8.75825,-7.67209 -9.7137,-0.06 -8.43978,6.87589 -8.43978,6.87589 0,0 3.82139,-3.65992 7.48433,-3.63402 8.48397,0.06 9.7137,4.43022 9.7137,4.43022 z"
       id="path4294"
       inkscape:connector-curvature="0" />
    <path
       inkscape:connector-curvature="0"
       id="path4296"
       d="m 358.09004,466.11443 c 0,0 -1.43317,10.5099 4.93647,10.5099 6.36963,0 4.77722,-10.35066 4.77722,-10.35066 0,0 -1.75165,3.02558 -4.61798,3.18482 -2.86634,0.15924 -5.09571,-3.34406 -5.09571,-3.34406 z"
       style="fill:#b38355;fill-opacity:1;fill-rule:evenodd;stroke:none;stroke-width:1.89168596;stroke-linecap:butt;stroke-linejoin:miter;stroke-miterlimit:4;stroke-dasharray:none;stroke-opacity:1" />
  </g>
</svg>
